/vscmnt/brussel_pixiu_data/_data_brussel/112/vsc11236/PredSimResults/SUBJ11opt3D/weighted-LRposFixed/expIG/worker_05.mot
version=1
nRows=8
nColumns=50
inDegrees=yes
endheader
                time	         pelvis_tilt	         pelvis_list	     pelvis_rotation	           pelvis_tx	           pelvis_ty	           pelvis_tz	       hip_flexion_r	     hip_adduction_r	      hip_rotation_r	        knee_angle_r	       ankle_angle_r	         mtp_angle_r	       hip_flexion_l	     hip_adduction_l	      hip_rotation_l	        knee_angle_l	       ankle_angle_l	         mtp_angle_l	    lumbar_extension	      lumbar_bending	     lumbar_rotation	 ercspn_r/activation	 intobl_r/activation	 extobl_r/activation	    abd_r/activation	    add_r/activation	hamstrings_r/activation	bifemsh_r/activation	glut_max_r/activation	iliopsoas_r/activation	rect_fem_r/activation	  vasti_r/activation	gastroc_r/activation	 soleus_r/activation	tib_ant_r/activation	 ercspn_l/activation	 intobl_l/activation	 extobl_l/activation	    abd_l/activation	    add_l/activation	hamstrings_l/activation	bifemsh_l/activation	glut_max_l/activation	iliopsoas_l/activation	rect_fem_l/activation	  vasti_l/activation	gastroc_l/activation	 soleus_l/activation	tib_ant_l/activation	
          0.72983614	         -1.96480799	          1.54348710	         -6.94452614	          0.70794105	          0.94543582	          0.00477644	        -12.92942965	         -3.22112879	          0.86420981	        -12.39712399	         13.98053049	         27.79130598	         29.49104953	         -0.90536844	         -2.41170295	         -8.98173893	          1.42308155	          0.21426020	        -14.17158054	          3.02583176	          3.38402200	          0.00999999	          0.00999999	          0.00999999	          0.05163572	          0.00999999	          0.02155388	          0.30908668	          0.03693266	          0.18507727	          0.00999999	          0.00999999	          0.17017023	          0.35897836	          0.01545740	          0.02893238	          0.30163132	          0.07687640	          0.00999999	          0.21283666	          0.03605424	          0.10136001	          0.02545973	          0.11967612	          0.04591760	          0.02561409	          0.00999999	          0.00999999	          0.39622637	
          0.74443286	         -2.15801110	          1.67298292	         -6.95873175	          0.72623095	          0.94299216	          0.00323021	        -13.40683371	         -3.53686893	          0.35894878	        -13.16467746	         13.40959779	         29.57709970	         29.36541873	         -0.55825249	         -2.61905728	        -10.01117263	          0.90638475	          0.22898863	        -13.65951873	          2.42164260	          3.62075821	          0.00999999	          0.00999999	          0.00999999	          0.04153190	          0.00999999	          0.02690600	          0.28143405	          0.02970586	          0.14886225	          0.00999999	          0.00999999	          0.15513018	          0.34265441	          0.01243277	          0.02327103	          0.24989242	          0.06183360	          0.00999999	          0.23311591	          0.03926126	          0.08152638	          0.04349370	          0.09625848	          0.03693267	          0.02060205	          0.01243278	          0.01540977	          0.40966441	
          0.75902958	         -2.32704494	          1.83855981	         -6.95291820	          0.74507012	          0.94079332	          0.00163324	        -13.79010396	         -3.89780420	         -0.15519546	        -14.17751620	         12.67983027	         31.46957767	         29.14612454	         -0.19756917	         -2.70559059	        -11.21572238	          0.41814049	          0.20571099	        -13.09662844	          1.76075652	          3.86068701	          0.00999999	          0.00999999	          0.00999999	          0.03340514	          0.02276756	          0.04178053	          0.24839665	          0.02389316	          0.11973361	          0.00999999	          0.00999999	          0.12477506	          0.32047848	          0.00999999	          0.01871747	          0.21054712	          0.04973430	          0.01016873	          0.18750092	          0.05091688	          0.06557369	          0.09666934	          0.07742309	          0.02970586	          0.01657074	          0.00999999	          0.01239446	          0.46883849	
          0.77362631	         -2.47492422	          2.02849802	         -6.91474152	          0.76413415	          0.93904145	         -0.00005289	        -13.98983286	         -4.28843065	         -0.69326732	        -15.54277260	         11.74726242	         33.47368887	         28.89924936	          0.17744382	         -2.90419962	        -12.36541562	         -0.31418466	          0.18328450	        -12.52045967	          1.06491652	          4.08976686	          0.02237882	          0.00999999	          0.00999999	          0.02686858	          0.01831260	          0.05673672	          0.20488034	          0.01921786	          0.09630472	          0.00999999	          0.00999999	          0.10035969	          0.29216961	          0.00999999	          0.01505493	          0.16934829	          0.04000254	          0.03082495	          0.19607814	          0.05981154	          0.05274255	          0.08897927	          0.06227332	          0.02389316	          0.06256163	          0.00999999	          0.00999999	          0.53217233	
          0.78822303	         -2.60214726	          2.22356451	         -6.84268190	          0.78319552	          0.93788161	         -0.00182221	        -13.94158388	         -4.68988988	         -1.25500062	        -17.33614318	         10.56611791	         35.57779688	         28.67858276	          0.54199822	         -3.21707568	        -13.59153966	         -0.97963995	          0.14070903	        -11.95789429	          0.35982608	          4.30445848	          0.03844913	          0.00999999	          0.00999999	          0.02161107	          0.06238577	          0.06659958	          0.16479038	          0.01545741	          0.07746029	          0.00999999	          0.00999999	          0.08072179	          0.25690306	          0.00999999	          0.01730319	          0.13621104	          0.03217504	          0.05621259	          0.21904903	          0.06816204	          0.04242215	          0.08604037	          0.05008798	          0.01921787	          0.15010938	          0.00999999	          0.00999999	          0.57431808	
          0.80281975	         -2.71065185	          2.41085545	         -6.73549173	          0.80204626	          0.93748926	         -0.00364676	        -13.57990942	         -5.08975608	         -1.83946680	        -19.63019178	          9.09594761	         37.70193443	         28.44820455	          0.89006986	         -3.59713260	        -14.86867615	         -1.29370243	          0.08595407	        -11.43019781	         -0.33903083	          4.49903930	          0.05656232	          0.00999999	          0.00999999	          0.01738232	          0.12276072	          0.08142778	          0.13254501	          0.01243278	          0.06230324	          0.00999999	          0.00999999	          0.06492655	          0.20663352	          0.00999999	          0.01772513	          0.10955793	          0.02587918	          0.07304978	          0.23627862	          0.07238571	          0.03412119	          0.11209470	          0.04028701	          0.01545741	          0.20144675	          0.00999999	          0.00999999	          0.57267252	
          0.81741647	         -2.80266144	          2.57975442	         -6.59170543	          0.82044365	          0.93800073	         -0.00548817	        -12.83984560	         -5.47988464	         -2.43900857	        -22.49879425	          7.36329639	         39.59418775	         28.17552944	          1.22236540	         -3.97529253	        -16.15149515	         -1.08242112	          0.05186541	        -10.96205120	         -1.02198884	          4.66705329	          0.06317618	          0.00999999	          0.00999999	          0.01398103	          0.18702761	          0.09543656	          0.11268846	          0.00999999	          0.05011204	          0.00999999	          0.00999999	          0.05222204	          0.16620048	          0.00999999	          0.01507448	          0.08812017	          0.02081527	          0.08251080	          0.25014718	          0.07779886	          0.02744452	          0.12018543	          0.03240384	          0.01243278	          0.25366148	          0.00999999	          0.00999999	          0.51059184	
          0.83201320	         -2.87977690	          2.71489878	         -6.41290695	          0.83822422	          0.93943677	         -0.00730307	        -11.69248005	         -5.85086233	         -3.05747316	        -25.96502289	          5.48304213	         40.79469723	         27.78646911	          1.54410299	         -4.25308218	        -17.28316011	         -0.39724647	          0.12388365	        -10.56967841	         -1.67535196	          4.80587118	          0.06559048	          0.00999999	          0.00999999	          0.01124529	          0.24436732	          0.10224518	          0.09500203	          0.00999999	          0.04030636	          0.00999999	          0.00999999	          0.04200348	          0.13367918	          0.00999999	          0.01212478	          0.07087724	          0.01674224	          0.08461761	          0.24280427	          0.07823734	          0.02207431	          0.13026349	          0.02606322	          0.00999999	          0.29488159	          0.00999999	          0.00999999	          0.41613321	
